<svg xmlns="http://www.w3.org/2000/svg" xmlns:xlink="http://www.w3.org/1999/xlink" width="25" zoomAndPan="magnify" viewBox="0 0 375 374.999991" height="25" preserveAspectRatio="xMidYMid meet" version="1.0"><defs><clipPath id="id1"><path d="M 68.101562 0 L 306.601562 0 L 306.601562 375 L 68.101562 375 Z M 68.101562 0 " clip-rule="nonzero"/></clipPath></defs><g clip-path="url(#id1)"><path fill="#e23027" d="M 158.5 114.070312 C 175.789062 102.53125 197.191406 104.03125 197.191406 104.03125 C 197.191406 104.03125 147.125 131.828125 132.007812 194.691406 C 136.949219 187.800781 167.78125 172.515625 167.78125 172.515625 C 107.3125 234.105469 126.472656 368.824219 127.667969 374.816406 C 127.667969 374.816406 88.15625 305.285156 95.789062 244.070312 C 85.835938 250.589844 67.949219 271.566406 68.101562 272.019531 C 67.652344 254.632812 85.984375 179.632812 112.476562 155.730469 C 99.605469 156.929688 75.957031 177.308594 75.285156 177.609375 C 151.992188 57.652344 306.300781 0.183594 306.601562 0.183594 C 306.601562 0.183594 179.082031 70.464844 158.5 114.070312 Z M 158.5 114.070312 " fill-opacity="1" fill-rule="nonzero"/></g></svg>